<svg xmlns:xlink="http://www.w3.org/1999/xlink" xmlns="http://www.w3.org/2000/svg" style="width: 24px; height: 24px; fill: var(--color-icon-warning);" width="24"  height="24" ><defs><symbol id="searchTrend" xmlns="http://www.w3.org/2000/svg" viewBox="0 0 24 24"><path fill-rule="evenodd" d="M12.015 9.105c.222.397.41.73.466.842.361.724.519 1.31.519 2.053a2 2 0 01-4 0l.003-4.557c0-.953-1.206-1.367-1.79-.613C5.087 9.572 4 11.906 4 13.889 4 18.365 7.578 22 12 22c4.422 0 8-3.635 8-8.111 0-2.968-2.45-6.78-7.295-11.598a1 1 0 00-1.6.262c-.807 1.615-.807 3.28 0 4.894.178.356.582 1.076.91 1.658zM7 12a4 4 0 108 0c0-1.078-.238-1.962-.73-2.947-.079-.156-.31-.569-.566-1.024a50.532 50.532 0 01-.81-1.476c-.273-.546-.404-1.079-.393-1.612C16.18 8.811 18 11.834 18 13.889 18 17.267 15.31 20 12 20s-6-2.733-6-6.111c0-.87.33-1.925 1-3.154V12z" clip-rule="evenodd"></path></symbol></defs><use xlink:href="#searchTrend" fill="#F9A825"></use></svg>