<svg xmlns:xlink="http://www.w3.org/1999/xlink" xmlns="http://www.w3.org/2000/svg" style="width: 20px; height: 20px; fill: var(--color-blue-700);" width="24"  height="24" ><defs><symbol id="voucher" xmlns="http://www.w3.org/2000/svg" viewBox="0 0 24 24"><path fill-rule="evenodd" d="M10 4h10a3 3 0 013 3v10a3 3 0 01-3 3H10a1 1 0 01-1-1 1 1 0 10-2 0 1 1 0 01-1 1H4a3 3 0 01-3-3V7a3 3 0 013-3h2a1 1 0 011 1 1 1 0 002 0 1 1 0 011-1zM8 8a3.001 3.001 0 01-2.83-2H4a1 1 0 00-1 1v10a1 1 0 001 1h1.17a3.001 3.001 0 015.66 0H20a1 1 0 001-1V7a1 1 0 00-1-1h-9.17A3.001 3.001 0 018 8zm5.5 2a1.5 1.5 0 100-3 1.5 1.5 0 000 3zm5.5 5.5a1.5 1.5 0 11-3 0 1.5 1.5 0 013 0zm-6.848-.03l1.696 1.06 5-8-1.696-1.06-5 8zM7 15v-2h2v2H7zm0-6v2h2V9H7z" clip-rule="evenodd"></path></symbol></defs><use xlink:href="#voucher" fill="#00BFD6"></use></svg>