<svg xmlns:xlink="http://www.w3.org/1999/xlink" xmlns="http://www.w3.org/2000/svg" style="width: 20px; height: 20px; fill: var(--color-blue-700);" width="24"  height="24" ><defs><symbol id="clubMission" xmlns="http://www.w3.org/2000/svg" viewBox="0 0 24 24"><path fill-rule="evenodd" d="M18.994 1.888l.006.114v3h3c.813 0 1.256.898.848 1.534l-.065.089-.076.084-3 3a1 1 0 01-.576.284l-.131.009h-3.586l-3.707 3.707a1 1 0 01-1.497-1.32l.083-.094L14 8.586V5.002a1 1 0 01.206-.608l.087-.1 3-3c.575-.574 1.523-.252 1.684.486l.017.108zm-6.493 2.239a9 9 0 107.375 7.376l-2.037-.001A7 7 0 1112.5 6.163V4.127zm-.205 4.045A5 5 0 1016 13.002l-.01-.307a4.984 4.984 0 00-.137-.9l-.024-.087-1.888 1.89a3.001 3.001 0 11-3.536-3.537l1.89-1.889zM16 5.416l1-1v1.586l.007.117.02.112a1 1 0 00.973.771h1.584l-1 1H16V5.416z" clip-rule="evenodd"></path></symbol></defs><use xlink:href="#clubMission" fill="#00BFD6"></use></svg>