<svg xmlns:xlink="http://www.w3.org/1999/xlink" xmlns="http://www.w3.org/2000/svg" style="width: 20px; height: 20px; fill: var(--color-blue-700);" width="24"  height="24" ><defs><symbol id="luckyDraw" xmlns="http://www.w3.org/2000/svg" viewBox="0 0 24 24"><path fill-rule="evenodd" d="M15.9 4.888C15.492 3.22 13.888 2 12 2c-1.894 0-3.504 1.228-3.904 2.906l-.006-.014-.27.136a9 9 0 108.08-.14zm-.174 2.305l.034-.099a7 7 0 11-7.523 0c.11.312.253.617.43.916a6 6 0 106.667 0c.157-.267.289-.54.392-.817zm-1.645 2.39l.137-.137-.136.137h-.001zm0 0a4 4 0 11-4.162.001 9.608 9.608 0 001.544 1.26l.537.341.537-.341a9.612 9.612 0 001.545-1.26zM10 5.723C10 4.792 10.873 4 12 4s2 .792 2 1.722c0 .725-.444 1.533-1.218 2.331a8.16 8.16 0 01-.515.487L12 8.762l-.267-.222a8.16 8.16 0 01-.515-.487C10.444 7.255 10 6.447 10 5.723z" clip-rule="evenodd"></path></symbol></defs><use xlink:href="#luckyDraw" fill="#00BFD6"></use></svg>