<svg xmlns:xlink="http://www.w3.org/1999/xlink" xmlns="http://www.w3.org/2000/svg" style="width: 24px; height: 24px; fill: var(--color-icon-high-emphasis);" width="24"  height="24" ><defs><symbol id="order" xmlns="http://www.w3.org/2000/svg" viewBox="0 0 24 24"><path fill-rule="evenodd" d="M12 2a5 5 0 014.995 4.783L17 7h2a1 1 0 01.993.883L20 8v11a3 3 0 01-2.824 2.995L17 22H7a3 3 0 01-2.995-2.824L4 19V8a1 1 0 01.883-.993L5 7h2a5 5 0 015-5zm6 7h-1v2h-2V9H9v2H7V9H6v10a1 1 0 00.77.974l.113.02L7 20h10a1 1 0 00.993-.883L18 19V9zM9.005 6.824A3 3 0 0115 7H9l.005-.176z" clip-rule="evenodd"></path></symbol></defs><use xlink:href="#order" fill="#424750"></use></svg>