<svg xmlns:xlink="http://www.w3.org/1999/xlink" width="28" height="28" viewBox="0 0 28 28" fill="none" xmlns="http://www.w3.org/2000/svg">
<g clip-path="url(#clip0)">
<g clip-path="url(#clip1)">
<path d="M2.74512 6.6344L20.8099 3.44909C21.601 3.3096 22.3554 3.83784 22.4949 4.62896L24.4454 15.6906C24.5849 16.4818 24.0566 17.2362 23.2655 17.3757L5.20075 20.561L2.74512 6.6344Z" fill="#FFAEFF"/>
<mask id="mask0" mask-type="alpha" maskUnits="userSpaceOnUse" x="2" y="3" width="23" height="18">
<path d="M2.74512 6.6344L20.8099 3.44909C21.601 3.3096 22.3554 3.83784 22.4949 4.62896L24.4454 15.6906C24.5849 16.4818 24.0566 17.2362 23.2655 17.3757L5.20075 20.561L2.74512 6.6344Z" fill="white"/>
</mask>
<g mask="url(#mask0)">
<g filter="url(#filter0_d)">
<rect x="1.55554" y="6.45593" width="23.1919" height="18.6667" rx="1.45455" fill="url(#paint0_linear)"/>
</g>
</g>
</g>
<path fill-rule="evenodd" clip-rule="evenodd" d="M1.55554 8.22217C1.55554 7.1176 2.45097 6.22217 3.55554 6.22217H22.8889C23.9934 6.22217 24.8889 7.1176 24.8889 8.22217V23.6666C24.8889 24.7712 23.9934 25.6666 22.8889 25.6666H3.55554C2.45097 25.6666 1.55554 24.7712 1.55554 23.6666V8.22217Z" fill="url(#paint1_linear)"/>
<g filter="url(#filter1_d)">
<path fill-rule="evenodd" clip-rule="evenodd" d="M14 15.9444C14 13.5819 15.9152 11.6666 18.2778 11.6666H26.3546C26.4042 11.6666 26.4444 11.7069 26.4444 11.7565V20.1323C26.4444 20.182 26.4042 20.2222 26.3546 20.2222H18.2778C15.9152 20.2222 14 18.307 14 15.9444Z" fill="#6900F6"/>
</g>
<rect x="16.3334" y="14" width="3.88889" height="3.88889" rx="1.94444" fill="white"/>
</g>
<defs>
<filter id="filter0_d" x="-1.44446" y="3.45593" width="29.1919" height="24.6667" filterUnits="userSpaceOnUse" color-interpolation-filters="sRGB">
<feFlood flood-opacity="0" result="BackgroundImageFix"/>
<feColorMatrix in="SourceAlpha" type="matrix" values="0 0 0 0 0 0 0 0 0 0 0 0 0 0 0 0 0 0 127 0" result="hardAlpha"/>
<feOffset/>
<feGaussianBlur stdDeviation="1.5"/>
<feColorMatrix type="matrix" values="0 0 0 0 0.637964 0 0 0 0 0.232295 0 0 0 0 0.637964 0 0 0 1 0"/>
<feBlend mode="normal" in2="BackgroundImageFix" result="effect1_dropShadow"/>
<feBlend mode="normal" in="SourceGraphic" in2="effect1_dropShadow" result="shape"/>
</filter>
<filter id="filter1_d" x="10" y="7.66663" width="20.4444" height="16.5556" filterUnits="userSpaceOnUse" color-interpolation-filters="sRGB">
<feFlood flood-opacity="0" result="BackgroundImageFix"/>
<feColorMatrix in="SourceAlpha" type="matrix" values="0 0 0 0 0 0 0 0 0 0 0 0 0 0 0 0 0 0 127 0" result="hardAlpha"/>
<feOffset/>
<feGaussianBlur stdDeviation="2"/>
<feColorMatrix type="matrix" values="0 0 0 0 0 0 0 0 0 0 0 0 0 0 0 0 0 0 0.2 0"/>
<feBlend mode="normal" in2="BackgroundImageFix" result="effect1_dropShadow"/>
<feBlend mode="normal" in="SourceGraphic" in2="effect1_dropShadow" result="shape"/>
</filter>
<linearGradient id="paint0_linear" x1="24.7475" y1="6.45593" x2="1.55554" y2="6.45593" gradientUnits="userSpaceOnUse">
<stop stop-color="#8C31ED"/>
<stop offset="1" stop-color="#A24BFF"/>
</linearGradient>
<linearGradient id="paint1_linear" x1="24.8889" y1="6.22217" x2="1.55554" y2="6.22217" gradientUnits="userSpaceOnUse">
<stop stop-color="#8C31ED"/>
<stop offset="1" stop-color="#A24BFF"/>
</linearGradient>
<clipPath id="clip0">
<rect width="24.8889" height="22.5556" fill="white" transform="translate(1.55554 3.11108)"/>
</clipPath>
<clipPath id="clip1">
<rect width="22.5556" height="17.8889" fill="white" transform="translate(2.68689 3.11108)"/>
</clipPath>
</defs>
</svg>