<svg xmlns:xlink="http://www.w3.org/1999/xlink" xmlns="http://www.w3.org/2000/svg" style="width: 24px; height: 24px; fill: var(--color-icon-primary);" width="24"  height="24" ><defs><symbol id="discount" xmlns="http://www.w3.org/2000/svg" viewBox="0 0 24 24"><path fill-rule="evenodd" d="M22 4a1 1 0 011 1v14a1 1 0 01-1 1H6a1 1 0 01-.707-.293l-4-4A1 1 0 011 15V9a1 1 0 01.293-.707l4-4A1 1 0 016 4h16zm-1 2H6.414L3 9.414v5.172L6.414 18H21V6zm-6 3.5a1.5 1.5 0 11-3 0 1.5 1.5 0 013 0zm2.5 6.5a1.5 1.5 0 100-3 1.5 1.5 0 000 3zM10 12a3 3 0 11-6 0 3 3 0 016 0zm-4 0a1 1 0 102 0 1 1 0 00-2 0zm12.848-3.47l-5 8-1.696-1.06 5-8 1.696 1.06z" clip-rule="evenodd"></path></symbol></defs><use xlink:href="#discount" fill="#EF4056"></use></svg>