<svg xmlns:xlink="http://www.w3.org/1999/xlink" xmlns="http://www.w3.org/2000/svg" style="width: 40px; height: 40px; fill: var(--color-icon-low-emphasis);" width="40"  height="40" ><defs><symbol id="aparat" xmlns="http://www.w3.org/2000/svg" viewBox="0 0 33 32"><path fill-rule="evenodd" d="M10.58 4.07a5.768 5.768 0 00-.804.33c-.66.324-1.321.978-1.626 1.609-.172.347-.546 1.597-.804 2.667-.029.11.184-.075.781-.671 1.184-1.192 2.31-1.95 3.763-2.546.65-.266 1.92-.625 2.47-.7.168-.024.294-.052.277-.064a28.734 28.734 0 00-1.195-.347c-1.046-.284-1.241-.319-1.856-.342-.494-.017-.781 0-1.005.064zm1.207 2.523a10.498 10.498 0 013.493-.984 10.5 10.5 0 016.877 1.76c2.333 1.573 3.861 3.911 4.436 6.77.149.746.149 2.957 0 3.703-.575 2.859-2.103 5.197-4.436 6.77a10.405 10.405 0 01-10.37.776 10.4 10.4 0 01-5.831-7.899c-.11-.74-.11-2.257 0-2.997a10.399 10.399 0 015.831-7.9zm4.395 5.463c.408-1.592-.643-3.276-2.258-3.611-.994-.209-1.947.086-2.688.827-1.173 1.18-1.178 2.969-.018 4.138 1.615 1.626 4.39.868 4.964-1.354zm5.332-2.142c1.333.348 2.223 1.482 2.223 2.83 0 .874-.247 1.499-.833 2.09-.402.404-.89.682-1.413.81-.724.167-1.333.092-2.04-.261-1.149-.567-1.81-1.898-1.557-3.13.132-.649.35-1.06.816-1.534.603-.608 1.224-.874 2.068-.886.224-.005.558.035.736.081zm-3.982 6.111c0-.463-.27-.885-.706-1.11-1.08-.562-2.264.566-1.758 1.683.155.347.258.457.597.614.902.428 1.867-.186 1.867-1.187zm-5.165.284c.173.029.523.162.776.289 1.149.567 1.81 1.898 1.557 3.13-.132.649-.35 1.06-.816 1.534-.942.955-2.258 1.163-3.464.55-1.546-.787-2.057-2.83-1.069-4.277.66-.954 1.85-1.44 3.016-1.226zm9.813 4.93c.316-1.522-.643-3.055-2.154-3.449a2.991 2.991 0 00-2.838.776 2.935 2.935 0 00.017 4.172c.89.897 2.24 1.11 3.43.532.695-.335 1.379-1.238 1.545-2.031zM23.48 7.212c-.144-.104-.259-.208-.259-.231 0-.024.172.011.39.069.213.058.8.214 1.305.347 1.23.319 1.746.579 2.327 1.152a3.627 3.627 0 011.091 2.639c0 .457-.046.694-.367 1.932a46.007 46.007 0 01-.397 1.435c-.017.012-.057-.167-.098-.399-.235-1.504-.89-3.165-1.723-4.41-.609-.92-1.614-2.036-2.27-2.534zM4.893 17.831c0 .023-.144.578-.316 1.238-.27 1.036-.316 1.273-.316 1.725 0 1.024.373 1.92 1.086 2.632.614.608 1.028.81 2.545 1.216.672.179 1.235.318 1.246.312.012-.011-.051-.08-.143-.15-.322-.25-1.362-1.296-1.707-1.725-1.05-1.302-1.867-3.026-2.223-4.664-.103-.492-.172-.717-.172-.584zm19.442 6.151c.287-.295.626-.671.752-.84.127-.161.236-.277.247-.248.023.07-.591 2.367-.74 2.755-.288.787-.995 1.545-1.788 1.938-1.074.532-1.786.544-3.55.07-1.334-.358-1.333-.36-1.31-.382a5.53 5.53 0 01.62-.145 11.493 11.493 0 005.769-3.148z" clip-rule="evenodd"></path></symbol></defs><use xlink:href="#aparat" fill="#9E9FB1"></use></svg>