<svg xmlns:xlink="http://www.w3.org/1999/xlink" xmlns="http://www.w3.org/2000/svg" style="width: 24px; height: 24px; fill: var(--color-plus-primary);" width="24"  height="24" ><defs><symbol id="cashback" xmlns="http://www.w3.org/2000/svg" viewBox="0 0 24 24"><path fill-rule="evenodd" d="M14 6a1 1 0 00-1-1H1a1 1 0 00-1 1v8a1 1 0 001 1h12a1 1 0 001-1V6zM2 7h10v2h-2v2h2v2H2v-2h2V9H2V7zm5 1a2 2 0 110 4 2 2 0 010-4zm8.293 2.707l4 4 1.414-1.414L18.414 11H20a2 2 0 012 2v2a2 2 0 01-2 2H8v2h12a4 4 0 004-4v-2l-.005-.2A4 4 0 0020 9h-1.586l2.293-2.293-1.414-1.414-4 4a1 1 0 000 1.414z" clip-rule="evenodd"></path></symbol></defs><use xlink:href="#cashback" fill="#A63489"></use></svg>