<svg xmlns:xlink="http://www.w3.org/1999/xlink" xmlns="http://www.w3.org/2000/svg" style="width: 24px; height: 24px; fill: var(--color-plus-primary);" width="24"  height="24" ><defs><symbol id="deliveryJet" xmlns="http://www.w3.org/2000/svg" viewBox="0 0 24 24"><path fill-rule="evenodd" d="M11.539 1.083l.224-.054a1 1 0 01.452-.006A6.098 6.098 0 0117 6.98v2.486l2.555 1.703a1 1 0 01.394.516l2 6a1 1 0 01-1.145 1.297L15.9 18H8.099l-4.903.98a1 1 0 01-1.145-1.296l2-6a1 1 0 01.394-.516L7 9.465V6.979a6.104 6.104 0 014.539-5.896zM7 11.868v4.312l-2.507.501 1.346-4.039L7 11.868zM15 10v6H9V6.979a4.099 4.099 0 012.839-3.9L12 3.03l.178.054A4.099 4.099 0 0115 6.98V10zm2 6.18l2.506.501-1.346-4.039-1.16-.773v4.311zM10 9a2 2 0 114 0 2 2 0 01-4 0zm0 13v-3H8v3h2zm6-3v3h-2v-3h2zm-3 4v-4h-2v4h2z" clip-rule="evenodd"></path></symbol></defs><use xlink:href="#deliveryJet" fill="#A63489"></use></svg>