<svg xmlns:xlink="http://www.w3.org/1999/xlink" xmlns="http://www.w3.org/2000/svg" style="width: 24px; height: 24px; fill: var(--color-icon-rating-0-2);" width="25"  height="24" ><defs><symbol id="topBrands" xmlns="http://www.w3.org/2000/svg" viewBox="0 0 25 24"><path d="M7.278 6.192L4.5 3.414 5.914 2l2.778 2.778-1.414 1.414z"></path><path fill-rule="evenodd" d="M14.497 4.675l1.028 3.162h3.325c2.034 0 2.88 2.603 1.234 3.799l-2.69 1.954 1.028 3.163c.628 1.934-1.586 3.543-3.232 2.347l-2.69-1.954L9.81 19.1c-1.646 1.196-3.86-.413-3.232-2.348l1.028-3.162-2.69-1.954c-1.646-1.196-.8-3.799 1.234-3.8h3.325l1.028-3.161c.629-1.935 3.365-1.935 3.994 0zm-3.641 5.162a.1.1 0 00.095-.07l1.454-4.474a.1.1 0 01.19 0l1.454 4.475a.1.1 0 00.095.069h4.706a.1.1 0 01.058.18l-3.806 2.767a.1.1 0 00-.036.111l1.453 4.476a.1.1 0 01-.153.111l-3.807-2.765a.1.1 0 00-.118 0l-3.807 2.765a.1.1 0 01-.153-.111l1.453-4.476a.1.1 0 00-.036-.111l-3.806-2.766a.1.1 0 01.058-.181h4.706z" clip-rule="evenodd"></path><path d="M19.167 15.244l3.333 2.222 1.11-1.664-3.334-2.223-1.11 1.665zM5.833 15.244L2.5 17.466l-1.11-1.664 3.334-2.223 1.11 1.665zM11.5 20v3h2v-3h-2zM18.192 6.192l2.778-2.778L19.556 2l-2.778 2.778 1.414 1.414z"></path></symbol></defs><use xlink:href="#topBrands" style="" fill="#F9BC00"></use></svg>